<svg xmlns="http://www.w3.org/2000/svg" xmlns:xlink="http://www.w3.org/1999/xlink" viewBox="-376 2645 110 95.428">
  <defs>
    <style>
      .cls-1 {
        fill: url(#linear-gradient);
      }
    </style>
    <linearGradient id="linear-gradient" y1="-0.863" x2="0" y2="1.604" gradientUnits="objectBoundingBox">
      <stop offset="0" stop-color="#333"/>
      <stop offset="0.239" stop-color="#862626"/>
      <stop offset="1" stop-color="#dd1818"/>
    </linearGradient>
  </defs>
  <g id="icons8_Error" transform="translate(-376.28 2613.504)">
    <path id="Path_41" data-name="Path 41" class="cls-1" d="M55.274,31.5a11.792,11.792,0,0,0-10.237,5.681L1.878,109.337c-4.589,7.632,1.29,17.588,10.209,17.588H98.432c8.947,0,14.827-9.956,10.267-17.588L65.511,37.177A11.791,11.791,0,0,0,55.274,31.5Zm0,7.23a4.615,4.615,0,0,1,3.958,2.237L102.39,113.1c1.807,3.012-.2,6.484-3.958,6.484H12.087c-3.728,0-5.735-3.472-3.929-6.484L51.317,40.964A4.613,4.613,0,0,1,55.274,38.726ZM51.546,60.819V97.544h7.341V60.819Zm0,44.071v7.345h7.341v-7.345Z" transform="translate(0)"/>
  </g>
</svg>
