<svg xmlns="http://www.w3.org/2000/svg" xmlns:xlink="http://www.w3.org/1999/xlink" viewBox="434 2153 154.024 88.042"><defs><style>.cls-1{fill:url(#linear-gradient)}.cls-2{fill:url(#linear-gradient-2)}.cls-3{fill:url(#linear-gradient-3)}.cls-4{fill:url(#linear-gradient-4)}</style><linearGradient id="linear-gradient" x1=".5" x2=".5" y1="1" gradientUnits="objectBoundingBox"><stop offset="0" stop-color="#77c0c0"/><stop offset=".414" stop-color="#8ec89f"/><stop offset="1" stop-color="#add372"/></linearGradient><linearGradient id="linear-gradient-2" x1=".5" x2=".5" y1=".999" y2="0" xlink:href="#linear-gradient"/><linearGradient id="linear-gradient-3" x1=".496" x2=".496" y1="1.4" y2="-3.549" gradientUnits="objectBoundingBox"><stop offset="0" stop-color="#4e277b"/><stop offset=".076" stop-color="#552b8c"/><stop offset=".271" stop-color="#6533b3"/><stop offset=".464" stop-color="#7239d2"/><stop offset=".653" stop-color="#7b3de7"/><stop offset=".834" stop-color="#8040f5"/><stop offset="1" stop-color="#8241f9"/></linearGradient><linearGradient id="linear-gradient-4" x1=".496" x2=".496" y1="104.229" y2="-14.776" xlink:href="#linear-gradient-3"/></defs><g id="Group_3" data-name="Group 3" transform="translate(434 2153.1)"><path id="Path_3" d="M83.144,25.2a11.334,11.334,0,0,0,.106-1.224c.013-.426.027-.811.027-1.171a21.081,21.081,0,0,0-.785-5.654,24.675,24.675,0,0,0-2.182-5.348,25.921,25.921,0,0,0-3.339-4.723,23.245,23.245,0,0,0-4.257-3.778A20.841,20.841,0,0,0,67.806.8a16.088,16.088,0,0,0-5.281-.9,18.138,18.138,0,0,0-1.876.106A11.906,11.906,0,0,0,58.52.445h.04a20.681,20.681,0,0,0-6.745,2.421,28.917,28.917,0,0,0-6.079,4.576,37.124,37.124,0,0,0-5.055,6.186,34.342,34.342,0,0,0-3.605,7.237,45.633,45.633,0,0,0-1.756,6.066,25.176,25.176,0,0,0-.6,5.122,13.081,13.081,0,0,0,.293,2.7c.013.053.013.093.027.146a.549.549,0,0,0-.146.093c0,.027-.013.04-.027.04s-.027.013-.027.04c-.545,1.1-1.157,2.275-1.809,3.512s-1.357,2.448-2.089,3.632c-.665,1.064-1.33,2.075-2.009,3.02-.067.093-.146.2-.213.306a17.118,17.118,0,0,1-2.2,2.528c-.013.013-.053,0-.04-.027q.16-1.137.279-2.235c.106-.825.2-1.636.279-2.421.16-1.5.319-2.993.452-4.47V38.9a5.912,5.912,0,0,0-.452-1.583,3.988,3.988,0,0,0-.945-1.277,4.208,4.208,0,0,0-1.583-.865,7.966,7.966,0,0,0-2.328-.306h0a3.585,3.585,0,0,0-1.078.226.86.86,0,0,0-.532.758h0v.306a1.39,1.39,0,0,0,.08.426h0l.16.945h0v.386a2,2,0,0,1-.04.386,5.278,5.278,0,0,1-.293,1.157c-.133.386-.279.732-.412,1.024h0c-.572,1.1-1.224,2.248-1.942,3.445a31.544,31.544,0,0,1-2.248,3.286,15.34,15.34,0,0,1-2.368,2.434,3.77,3.77,0,0,1-2.355.945A1.792,1.792,0,0,1,10,50.252a1.937,1.937,0,0,1-.6-.9,4.881,4.881,0,0,1-.226-1.224,6.277,6.277,0,0,1,.04-1.237,15.16,15.16,0,0,1,.665-3.14,43.48,43.48,0,0,1,1.5-4.151c.625-1.477,1.33-2.953,2.128-4.43a29.764,29.764,0,0,1,2.554-4.018,15.328,15.328,0,0,1,2.847-2.927,4.811,4.811,0,0,1,2.927-1.131,3.063,3.063,0,0,1,1.9.6,4.625,4.625,0,0,1,1.264,1.5,6.992,6.992,0,0,1,.665,2.049,11.144,11.144,0,0,1,.146,2.168h0c-.053.306-.106.585-.146.865a4.507,4.507,0,0,1-.226.851v.027a1.12,1.12,0,0,0,.891.439,2.328,2.328,0,0,0,.532-.146,1.106,1.106,0,0,0,.492-.266v-.013a8.187,8.187,0,0,0,.306-1.1c.067-.359.133-.732.186-1.117a10.053,10.053,0,0,0-.266-3.445,9.614,9.614,0,0,0-1.384-3.1,7.787,7.787,0,0,0-2.368-2.248,6.167,6.167,0,0,0-3.246-.865,9.67,9.67,0,0,0-4.536,1.131,17.161,17.161,0,0,0-4.124,3.02,27.56,27.56,0,0,0-3.592,4.31,40.556,40.556,0,0,0-2.913,5.015,37.52,37.52,0,0,0-2.062,5.1,24.912,24.912,0,0,0-1.051,4.576c-.027.226-.053.452-.067.678s-.027.452-.027.639A11.372,11.372,0,0,0,2.514,50.4a5.921,5.921,0,0,0,.971,2.182,4.861,4.861,0,0,0,1.769,1.5,4.083,4.083,0,0,0,.825.319,6.823,6.823,0,0,0,1.876.239,7.116,7.116,0,0,0,3.259-.811,13.866,13.866,0,0,0,3.073-2.1A23.113,23.113,0,0,0,16.709,49.2c.12-.146.239-.293.359-.452q1.277-1.616,2.395-3.312c.013-.027.053-.013.053.027l-.625,2.661c-.027.08-.04.173-.067.253q-.3,1.217-.6,2.634c-.226,1.038-.439,2.1-.652,3.166a.013.013,0,0,1-.013.013c-1.862,1.623-3.685,3.286-5.441,5.015A57.683,57.683,0,0,0,7.21,64.659a43.739,43.739,0,0,0-4.044,6.106A34.231,34.231,0,0,0,.372,77.789,11.262,11.262,0,0,0,0,80.65,8.452,8.452,0,0,0,1.384,85.6a5.177,5.177,0,0,0,3.738,2.275,7.78,7.78,0,0,0,4.935-.971A14.579,14.579,0,0,0,14.3,83.111a30.584,30.584,0,0,0,3.605-6.026,68.663,68.663,0,0,0,3.006-7.636q1.357-4.111,2.5-8.62t2.035-9.046c0-.013,0-.013.013-.013a13.281,13.281,0,0,0,2.94-2.78,41.546,41.546,0,0,0,3.033-4.19c.027-.053.067-.093.093-.146.958-1.5,1.876-3.046,2.754-4.669.466-.851.9-1.676,1.317-2.461.013-.027.04-.013.053,0a12.32,12.32,0,0,0,3.219,5c.293.266.6.532.918.785a18.724,18.724,0,0,0,4.137,2.5,33.673,33.673,0,0,0,6.186,2q3.312.738,6.665,1.277l1.078.16c1.184.226,2.488.466,3.9.718s2.7.532,3.858.8a15.668,15.668,0,0,1,3.366,1.4A5.067,5.067,0,0,1,71.1,54.3h0a5.247,5.247,0,0,1,.293,1.769,4.482,4.482,0,0,1-.532,2.1,9.61,9.61,0,0,1-1.4,1.982,14.287,14.287,0,0,1-2.022,1.823,27.173,27.173,0,0,1-2.368,1.583q-1.217.718-2.434,1.317c-.811.4-1.556.732-2.248,1.011h0a31.81,31.81,0,0,1-4.47,1.131,25.474,25.474,0,0,1-4.643.439,21.056,21.056,0,0,1-4.789-.532,14.82,14.82,0,0,1-4.2-1.65A12.367,12.367,0,0,1,39,62.451,11.017,11.017,0,0,1,37,58.38a6.607,6.607,0,0,1-.412-2.022,2.677,2.677,0,0,1,.16-.984,4.862,4.862,0,0,1,.372-.745h0l.293-.572v-.013c.133-.6.013-.9-.372-.9a2.11,2.11,0,0,0-1.65.825,7.776,7.776,0,0,0-1.2,1.982A14.83,14.83,0,0,0,33.4,58.34a18.443,18.443,0,0,0-.372,2.022,10.523,10.523,0,0,0,.559,4.3,13.363,13.363,0,0,0,2.089,3.778,15.866,15.866,0,0,0,3.3,3.153,23.245,23.245,0,0,0,4.2,2.395,24.84,24.84,0,0,0,4.789,1.53,24.149,24.149,0,0,0,5.082.532,22.261,22.261,0,0,0,8.62-1.65,25.448,25.448,0,0,0,4.935-2.913,22.442,22.442,0,0,0,4.071-3.938A19.359,19.359,0,0,0,73.446,62.8a13.675,13.675,0,0,0,1.024-5.281,14.3,14.3,0,0,0-.625-4.124,11.718,11.718,0,0,0-3.06-4.949,17.978,17.978,0,0,0-4.576-3.219q-.7-.379-1.477-.718c-.279-.12-.559-.239-.851-.359-.838-.333-1.689-.652-2.541-.945l-.9-.333c-1.29-.466-2.621-.971-3.978-1.53a24.254,24.254,0,0,1-3.884-1.982,17.222,17.222,0,0,1-3.326-2.727,11.983,11.983,0,0,1-2.355-3.751,16.059,16.059,0,0,1-1.131-3.791,25.582,25.582,0,0,1-.346-4.457c0-.359,0-.705.027-1.051s.04-.692.067-1.051a32.255,32.255,0,0,1,.9-6.851,20.749,20.749,0,0,1,2.448-6.026,13.426,13.426,0,0,1,4.124-4.257,11.09,11.09,0,0,1,9.991-.705,15.452,15.452,0,0,1,3.791,2.355,21.319,21.319,0,0,1,3.326,3.485,27.015,27.015,0,0,1,2.661,4.244,26.68,26.68,0,0,1,1.823,4.683,22.837,22.837,0,0,1,.811,4.789H75.3a15.315,15.315,0,0,1-.678,4.683A13.445,13.445,0,0,1,72.861,32.6a8.764,8.764,0,0,1-2.434,2.421,5.154,5.154,0,0,1-2.767.865A4.5,4.5,0,0,1,65,34.954,6.628,6.628,0,0,1,62.87,32.04a4.943,4.943,0,0,0-.758-1.171.671.671,0,0,0-.971-.106,1.24,1.24,0,0,0-.479.865,2.368,2.368,0,0,0,.146,1.117,8.684,8.684,0,0,0,3.1,4.39A7.688,7.688,0,0,0,68.444,38.6a11.9,11.9,0,0,0,4.723-1.038,16.914,16.914,0,0,0,4.483-2.847A18.723,18.723,0,0,0,81.2,30.457,14,14,0,0,0,83.144,25.2ZM16.629,58.274h0l-.253,1.117h0l-.865,2.847c-.466,1.49-.971,3.073-1.5,4.762s-1.117,3.366-1.756,5.015-1.3,3.206-2.022,4.683a20.9,20.9,0,0,1-2.315,3.778A8.993,8.993,0,0,1,6.2,82.233a3.918,3.918,0,0,1-1.876.811,1.759,1.759,0,0,1-1.583-.705,3.08,3.08,0,0,1-.479-1.769,11.037,11.037,0,0,1,.479-2.993A31.817,31.817,0,0,1,3.9,74.251c.452-1.1.918-2.115,1.384-3.033s.851-1.636,1.157-2.128a47.443,47.443,0,0,1,4.8-6.146,46.669,46.669,0,0,1,5.547-5.162Z" class="cls-1" data-name="Path 3"/><g id="Group_2" data-name="Group 2" transform="translate(80.577 9.053)"><path id="Path_4" d="M679.053,107.146l-.013.013c0-.093-.013-.2-.013-.306a17.223,17.223,0,0,0-.532-2.661c-.053-.146-.093-.306-.146-.466a35.457,35.457,0,0,0-1.769-4.244q-1.117-2.275-2.554-4.709c-.812-1.37-1.676-2.74-2.568-4.1-.12-.186-.239-.372-.372-.559a.414.414,0,0,1-.053-.372c.2-.585.412-1.171.652-1.743.266-.639.519-1.264.758-1.9q.778-1.856,1.357-3.512a8.981,8.981,0,0,0,.572-2.927,3.162,3.162,0,0,0-.306-1.423,2.907,2.907,0,0,0-.812-.971,3.081,3.081,0,0,0-1.157-.532,5.739,5.739,0,0,0-1.357-.16,6.414,6.414,0,0,0-2.049.333,4.765,4.765,0,0,0-1.756,1,7.294,7.294,0,0,0-2.368,3.219,11.09,11.09,0,0,0-.679,3.845,14.722,14.722,0,0,0,.9,5.042,16.3,16.3,0,0,0,2.075,3.978c.04.053.08.12.12.173a.441.441,0,0,1,.053.426l-.718,1.689h0c-.519.918-1.078,1.809-1.69,2.687a44.725,44.725,0,0,1-3.259,4.151,51.339,51.339,0,0,1-3.672,3.738c-1.224,1.117-2.448,2.128-3.658,3.046a.029.029,0,0,1-.04-.04,34.454,34.454,0,0,0,2.568-3.884,44.844,44.844,0,0,0,2.182-4.39c.492-1.157.918-2.275,1.264-3.379l.279-.918a20.917,20.917,0,0,0,.758-3.738c.027-.226.053-.452.067-.678s.027-.466.027-.678a11.3,11.3,0,0,0-.293-2.621,5.941,5.941,0,0,0-.971-2.182,4.828,4.828,0,0,0-1.8-1.49,6.038,6.038,0,0,0-2.727-.559,7.384,7.384,0,0,0-2.993.639,12.88,12.88,0,0,0-2.82,1.729,19.394,19.394,0,0,0-2.594,2.541,31.254,31.254,0,0,0-2.315,3.06q.08-.279.12-.479c.027-.12.053-.239.08-.333s.053-.186.08-.293.067-.239.12-.439c.412-1.543.812-3.1,1.211-4.683s.772-3.126,1.117-4.616.652-2.927.9-4.3.452-2.607.559-3.738a11.056,11.056,0,0,0-.04-2.1,4.2,4.2,0,0,0-.638-1.836,3.776,3.776,0,0,0-1.49-1.3,5.68,5.68,0,0,0-2.581-.492,2.637,2.637,0,0,0-1.011.186.8.8,0,0,0-.479.758,1.575,1.575,0,0,0,.027.346c.013.12.04.253.067.386.053.253.106.532.146.865a6.836,6.836,0,0,1,.027,1.2c-.053.519-.16,1.211-.333,2.062s-.373,1.836-.612,2.953-.532,2.341-.851,3.672-.639,2.714-.971,4.151c-.492,2.089-1.011,4.257-1.543,6.479-.333,1.357-.625,2.687-.918,3.991v.013c-.133.253-.333.625-.585,1.131-.439.851-.984,1.889-1.65,3.1s-1.383,2.488-2.182,3.845-1.583,2.607-2.368,3.765c-.16.239-.319.466-.465.678-.612.865-1.184,1.6-1.716,2.208-.678.758-1.237,1.144-1.676,1.144a.6.6,0,0,1-.532-.346,2.912,2.912,0,0,1-.306-.851,5.317,5.317,0,0,1-.106-1.051c0-.213,0-.4.013-.572.013-.133.013-.266.027-.386a16.986,16.986,0,0,1,.7-3.632c.412-1.437.865-2.967,1.357-4.616.545-1.809,1.078-3.672,1.57-5.547a31.327,31.327,0,0,0,.945-5.1,7.853,7.853,0,0,0-.027-1.769,4.239,4.239,0,0,0-.452-1.5,2.676,2.676,0,0,0-2.581-1.423,4.665,4.665,0,0,0-1.982.306,1.37,1.37,0,0,0-.665,1.131.466.466,0,0,1,.04.213,1.515,1.515,0,0,0,.04.412,6.042,6.042,0,0,1,.12.678,2.89,2.89,0,0,1,0,.678,17.649,17.649,0,0,1-.293,2.328c-.133.732-.306,1.45-.492,2.142s-.412,1.423-.639,2.142-.492,1.5-.758,2.328l.04-.04c-.412.665-.9,1.477-1.49,2.434s-1.2,1.982-1.876,3.06-1.357,2.128-2.062,3.179-1.384,2-2.062,2.847c-.12.16-.24.306-.359.452a16.793,16.793,0,0,1-1.49,1.61,2.364,2.364,0,0,1-1.384.785c-.253,0-.412-.226-.479-.665a8.152,8.152,0,0,1-.067-1.57h0c.013-.12.027-.239.04-.372a25.346,25.346,0,0,1,.479-2.568c.266-1.131.545-2.275.851-3.445s.625-2.3.971-3.406.638-2.049.891-2.847c.306-.825.625-1.836.944-3.033A21.343,21.343,0,0,0,616.582,90a8.7,8.7,0,0,0-.293-3.073,3.641,3.641,0,0,0-1.61-2.208,6.432,6.432,0,0,0-1.224-.452,6.1,6.1,0,0,0-1.676-.253,2.373,2.373,0,0,0-1.038.213.839.839,0,0,0-.492.785V85.3a1.049,1.049,0,0,0,.08.333v-.04c.053.226.12.479.186.758a3.212,3.212,0,0,1,.027,1.091,24.5,24.5,0,0,1-.678,3.592c-.372,1.49-.785,3.06-1.264,4.709-.279,1.024-.559,2.089-.865,3.193s-.585,2.222-.851,3.326-.492,2.182-.678,3.246c-.173.971-.306,1.876-.386,2.727-.013.08-.013.146-.027.226-.027.306-.053.585-.067.865s-.027.545-.027.825a7.292,7.292,0,0,0,.851,3.778,3.188,3.188,0,0,0,2.993,1.423,6.264,6.264,0,0,0,3.113-.825,11.837,11.837,0,0,0,2.74-2.168,25.32,25.32,0,0,0,2.434-2.993,1.411,1.411,0,0,1,.106-.146c.732-1.051,1.437-2.115,2.128-3.193a.371.371,0,0,0,.106-.16.375.375,0,0,1,.107-.16c-.107.466-.2.931-.266,1.4s-.12.891-.146,1.3h0v1.211a8.649,8.649,0,0,0,.253,2.195,4.171,4.171,0,0,0,.851,1.716,3.924,3.924,0,0,0,1.57,1.117,6.389,6.389,0,0,0,2.408.386,4.714,4.714,0,0,0,2.554-.825,12.394,12.394,0,0,0,2.541-2.235,28.32,28.32,0,0,0,2.461-3.219c.186-.279.373-.572.559-.865.6-.931,1.171-1.889,1.729-2.873.519-.9,1.011-1.823,1.477-2.727a.029.029,0,0,1,.053.013c-.107.612-.213,1.2-.319,1.783-.213,1.237-.346,2.341-.426,3.312-.04.426-.053.825-.067,1.2a7.86,7.86,0,0,0,1.264,5.175,6.805,6.805,0,0,0,3.778,2.621,8.593,8.593,0,0,0,2.022.253,13.416,13.416,0,0,0,4.111-.665,31.771,31.771,0,0,0,3.738-1.45,28.934,28.934,0,0,0,6.266-4.031,49.1,49.1,0,0,0,5.468-5.281,48.473,48.473,0,0,0,4.017-5.2l.24-.359c.266-.412.519-.825.758-1.211.412-.692.785-1.33,1.1-1.942,0-.013.013-.013.027-.013a.418.418,0,0,1,.346.186,20.1,20.1,0,0,1,1.038,2,30.374,30.374,0,0,1,1.157,2.927c.333,1,.6,1.942.812,2.873a11.116,11.116,0,0,1,.306,2.5,9.343,9.343,0,0,1-1.61,5.414,5.876,5.876,0,0,1-4.789,2.1,6.41,6.41,0,0,1-1.237-.027,4.262,4.262,0,0,1-1.131-.266,1.779,1.779,0,0,1-.825-.625,1.724,1.724,0,0,1-.306-1.078,3.664,3.664,0,0,0-.04-.945.513.513,0,0,0-.572-.452,1.5,1.5,0,0,0-1.171.6,2.3,2.3,0,0,0-.6,1.171,3.1,3.1,0,0,0,.372,1.849,3.536,3.536,0,0,0,1.3,1.277,6.465,6.465,0,0,0,2.022.745,12.78,12.78,0,0,0,2.541.239,14.9,14.9,0,0,0,2.461-.213,21.83,21.83,0,0,0,2.581-.572,20.772,20.772,0,0,0,2.5-.9,13.021,13.021,0,0,0,2.208-1.237,14.611,14.611,0,0,0,2.222-2.168c.106-.12.213-.253.319-.386a3.148,3.148,0,0,0,.532-.945A6.43,6.43,0,0,0,679.053,107.146ZM652.38,99.337c-.4,1.038-.865,2.1-1.384,3.193-.12.239-.226.492-.346.732a35.607,35.607,0,0,1-2.142,3.791,25.8,25.8,0,0,1-2.408,3.179,8.926,8.926,0,0,1-2.581,2.062,2.6,2.6,0,0,1-1.2.372.934.934,0,0,1-.944-.718,6.02,6.02,0,0,1-.253-1.876,16.323,16.323,0,0,1,.186-2.288c.093-.652.213-1.317.333-1.969.04-.186.067-.359.106-.545.16-.838.346-1.663.532-2.461s.373-1.49.532-2.062l.253-.984-.04.04c.546-1.051,1.2-2.168,1.942-3.379a36.722,36.722,0,0,1,2.328-3.379,16.864,16.864,0,0,1,2.474-2.621,3.864,3.864,0,0,1,2.461-1.051,1.792,1.792,0,0,1,1.157.346,1.938,1.938,0,0,1,.6.9,4.9,4.9,0,0,1,.213,1.224c.013.439,0,.851-.027,1.237a13.941,13.941,0,0,1-.559,2.727C653.285,96.889,652.873,98.073,652.38,99.337Zm17.706-11.986a.4.4,0,0,1-.758-.08,6.552,6.552,0,0,1-.146-1.37,9.849,9.849,0,0,1,.253-2.235,10.683,10.683,0,0,1,.625-2,5.78,5.78,0,0,1,.8-1.4q.439-.519.8-.479c.186.027.373.213.532.532h-.04a1.963,1.963,0,0,1,0,1.131,17.069,17.069,0,0,1-.492,1.8c-.226.665-.479,1.357-.758,2.089C670.592,86.074,670.326,86.752,670.087,87.351Z" class="cls-2" data-name="Path 4" transform="translate(-605.7 -68.7)"/><path id="Path_5" d="M1084.7,168.3l.625-2A10.674,10.674,0,0,0,1084.7,168.3Z" class="cls-3" data-name="Path 5" transform="translate(-1020.978 -153.316)"/><path id="Path_6" d="M1084.7,168.3l.625-2A10.674,10.674,0,0,0,1084.7,168.3Z" class="cls-4" data-name="Path 6" transform="translate(-1020.978 -153.316)"/></g></g></svg>